#N canvas 11 7 1265 739 10;
#X obj 41 65 jk_theme;
#X obj 40 351 s~ audio_out0;
#X obj 329 320 s~ audio_out1;
#X obj 748 213 r~ audio_out0;
#X obj 749 181 s~ audio_in0;
#X obj 329 167 r~ audio_in1;
#X obj 67 210 jk_ssb_modulation0~;
#X obj 748 9 jk_audio_input0~;
#X obj 747 236 jk_audio_output0~;
#X obj 356 194 jk_ssb_modulation1~;
#X obj 198 62 bng 15 250 50 0 empty empty empty 17 7 0 10 -262144 -1
-1;
#X obj 198 135 pack 0 1000;
#X obj 198 162 line 0 100;
#X obj 198 86 random 2000;
#X obj 198 112 - 1000;
#X obj 198 39 metro 2000;
#X msg 198 14 1;
#X obj 492 66 bng 15 250 50 0 empty empty empty 17 7 0 10 -262144 -1
-1;
#X obj 492 137 pack 0 1000;
#X obj 492 164 line 0 100;
#X obj 492 88 random 2000;
#X obj 492 114 - 1000;
#X text 42 20 X Y Z;
#X obj 66 156 r~ audio_in0;
#X obj 36 189 *~ 0.7;
#X connect 3 0 8 0;
#X connect 5 0 9 0;
#X connect 6 0 1 0;
#X connect 7 0 4 0;
#X connect 9 0 2 0;
#X connect 10 0 13 0;
#X connect 11 0 12 0;
#X connect 12 0 6 1;
#X connect 13 0 14 0;
#X connect 14 0 11 0;
#X connect 15 0 10 0;
#X connect 15 0 17 0;
#X connect 16 0 15 0;
#X connect 17 0 20 0;
#X connect 18 0 19 0;
#X connect 19 0 9 1;
#X connect 20 0 21 0;
#X connect 21 0 18 0;
#X connect 23 0 6 0;
#X connect 23 0 24 0;
